# xmcd CD database file
#
# Track frame offsets:
#	150
#	10800
#	22025
#	33500
#	52975
#	66450
#	77625
#	91850
#	107025
#	116400
#	131350
#	144425
#	154050
#	165050
#	177525
#	186650
#
# Disc length: 2786 seconds
#
# Revision: 0
# Processed by: cddbd v1.4PL0 Copyright (c) Steve Scherf et al.
# Submitted via: NeoAudio 9.9.9
#
DISCID=cd0ae010
DTITLE=J. Hawkins - Raunchy Rodeo Club
DYEAR=1995
DGENRE=Country
TTITLE0=Copenhagen
TTITLE1=Mermaid Song
TTITLE2=How Can I Love You
TTITLE3=Save The Bales
TTITLE4=Dead Armadillo
TTITLE5=Raunchy Rodeo
TTITLE6=Redneck Girl
TTITLE7=Animal Fun
TTITLE8=Rodeo Song
TTITLE9=It's So Hard To Say I Love You
TTITLE10=All American Redneck
TTITLE11=If That Aint Love, What Is
TTITLE12=Lovin' You Is The Dumbest Fucking Thing I've Ever Done
TTITLE13=Shit Faced Tonight
TTITLE14=Where Do Assholes Come From
TTITLE15=Shit, I Missed It Again
EXTD=YEAR: 1995
EXTT0=
EXTT1=
EXTT2=
EXTT3=
EXTT4=
EXTT5=
EXTT6=
EXTT7=
EXTT8=
EXTT9=
EXTT10=
EXTT11=
EXTT12=
EXTT13=
EXTT14=
EXTT15=
PLAYORDER=
